<svg height="512pt" viewBox="0 -33 512 512" width="512pt" xmlns="http://www.w3.org/2000/svg"><path d="m117.269531 157.867188v-118.761719c0-21.5625-17.542969-39.105469-39.105469-39.105469s-39.105468 17.542969-39.105468 39.105469v117.410156c-23.300782 13.257813-39.058594 38.300781-39.058594 66.96875s15.757812 53.714844 39.058594 66.96875v117.410156c0 21.566407 17.542968 39.109375 39.105468 39.109375 21.566407 0 39.109376-17.542968 39.109376-39.109375v-118.757812c22.027343-13.566407 36.75-37.902344 36.75-65.621094 0-27.714844-14.722657-52.050781-36.753907-65.617187zm-57.972656-118.761719c0-10.402344 8.464844-18.867188 18.867187-18.867188 10.40625 0 18.867188 8.464844 18.867188 18.867188v110.023437c-12.300781-3.316406-25.339844-3.507812-37.734375-.574218zm37.734375 368.757812c0 10.40625-8.464844 18.871094-18.867188 18.871094-10.402343 0-18.867187-8.464844-18.867187-18.871094v-109.445312c12.394531 2.929687 25.433594 2.738281 37.734375-.574219zm-20.019531-127.605469c-31.304688 0-56.773438-25.464843-56.773438-56.773437 0-31.304687 25.46875-56.773437 56.773438-56.773437 31.304687 0 56.773437 25.46875 56.773437 56.773437 0 31.308594-25.46875 56.773437-56.773437 56.773437zm0 0"/><path d="m296.175781 72.507812v-33.402343c0-21.5625-17.542969-39.105469-39.109375-39.105469-21.5625 0-39.105468 17.542969-39.105468 39.105469v32.15625c-23.253907 13.269531-38.972657 38.285156-38.972657 66.921875 0 28.632812 15.71875 53.652344 38.976563 66.921875v202.761719c0 21.5625 17.539062 39.105468 39.105468 39.105468 21.5625 0 39.105469-17.542968 39.105469-39.105468v-53.566407c0-12.992187-20.238281-13.011719-20.238281 0v53.566407c0 10.402343-8.464844 18.867187-18.867188 18.867187-10.40625 0-18.867187-8.460937-18.867187-18.867187v-194.773438c12.417969 2.953125 25.488281 2.765625 37.816406-.554688v61.3125c0 12.992188 20.238281 13.011719 20.238281 0v-70.050781c22.03125-13.566406 36.753907-37.902343 36.753907-65.617187 0-27.753906-14.757813-52.121094-36.835938-65.675782zm-57.976562-33.402343c0-10.402344 8.464843-18.867188 18.867187-18.867188 10.40625 0 18.871094 8.464844 18.871094 18.867188v24.695312c-12.308594-3.300781-25.347656-3.476562-37.738281-.53125zm17.800781 155.847656c-31.304688 0-56.773438-25.464844-56.773438-56.773437 0-31.304688 25.46875-56.773438 56.773438-56.773438s56.773438 25.46875 56.773438 56.773438c0 31.308593-25.46875 56.773437-56.773438 56.773437zm0 0"/><path d="m512 314.148438c0-27.714844-14.722656-52.050782-36.753906-65.617188v-209.425781c0-21.5625-17.542969-39.105469-39.105469-39.105469s-39.105469 17.542969-39.105469 39.105469v208.074219c-23.300781 13.257812-39.058594 38.300781-39.058594 66.96875 0 28.671874 15.757813 53.714843 39.058594 66.96875v26.746093c0 21.566407 17.542969 39.109375 39.105469 39.109375s39.105469-17.542968 39.105469-39.109375v-28.09375c22.03125-13.566406 36.753906-37.902343 36.753906-65.621093zm-94.726562-275.042969c0-10.402344 8.464843-18.867188 18.867187-18.867188 10.40625 0 18.867187 8.464844 18.867187 18.867188v200.6875c-12.300781-3.316407-25.335937-3.507813-37.734374-.574219zm-39.058594 275.042969c0-31.304688 25.46875-56.773438 56.773437-56.773438 31.304688 0 56.773438 25.46875 56.773438 56.773438 0 31.308593-25.46875 56.773437-56.773438 56.773437-31.304687 0-56.773437-25.46875-56.773437-56.773437zm76.792968 93.714843c0 10.40625-8.464843 18.871094-18.867187 18.871094s-18.867187-8.464844-18.867187-18.871094v-18.78125c12.394531 2.929688 25.429687 2.738281 37.734374-.574219zm0 0"/><path d="m286.140625 304.027344c-5.410156 0-10.035156 4.539062-10.105469 9.949218-.070312 5.613282 4.53125 10.25 10.128906 10.257813 5.582032.003906 10.203126-4.742187 10.085938-10.328125-.109375-5.371094-4.746094-9.878906-10.109375-9.878906zm0 0"/></svg>