<svg height="512" viewBox="0 0 64 64" width="512" xmlns="http://www.w3.org/2000/svg"><g id="LED_Garden" data-name="LED Garden"><path d="m62 45v-2a1 1 0 0 0 -1-1 8.96 8.96 0 0 0 -7 3.36v-3.5c2.31-.63 4-3.42 4-6.86 0-3.8-4.26-6.71-4.44-6.83a1 1 0 0 0 -1.12 0c-.18.12-4.44 3.03-4.44 6.83 0 3.44 1.69 6.23 4 6.86v3.5a8.96 8.96 0 0 0 -7-3.36 1 1 0 0 0 -1 1v2a8.96 8.96 0 0 0 3.36 7h-14.36v-4h3a7.008 7.008 0 0 0 7-7 1 1 0 0 0 -1-1h-4a6.97 6.97 0 0 0 -5 2.11v-8.25c2.31-.63 4-3.42 4-6.86 0-3.8-4.26-6.71-4.44-6.83a1 1 0 0 0 -1.12 0c-.18.12-4.44 3.03-4.44 6.83 0 3.44 1.69 6.23 4 6.86v2.25a6.97 6.97 0 0 0 -5-2.11h-4a1 1 0 0 0 -1 1 7.008 7.008 0 0 0 7 7h3v10h-14.36a8.96 8.96 0 0 0 3.36-7v-2a1 1 0 0 0 -1-1 8.96 8.96 0 0 0 -7 3.36v-3.5c2.31-.63 4-3.42 4-6.86 0-3.8-4.26-6.71-4.44-6.83a1 1 0 0 0 -1.12 0c-.18.12-4.44 3.03-4.44 6.83 0 3.44 1.69 6.23 4 6.86v3.5a8.96 8.96 0 0 0 -7-3.36 1 1 0 0 0 -1 1v2a8.96 8.96 0 0 0 3.36 7h-2.36a1 1 0 0 0 -1 1v8a1 1 0 0 0 1 1h58a1 1 0 0 0 1-1v-8a1 1 0 0 0 -1-1h-2.36a8.96 8.96 0 0 0 3.36-7zm-24-3h2.9a5.009 5.009 0 0 1 -4.9 4h-2.9a5.009 5.009 0 0 1 4.9-4zm-10-2a5.009 5.009 0 0 1 -4.9-4h2.9a5.009 5.009 0 0 1 4.9 4zm22-5c0-2.06 2-3.94 3-4.75 1 .81 3 2.69 3 4.75 0 2.71-1.37 5-3 5s-3-2.29-3-5zm-4 10v-.93a7.013 7.013 0 0 1 6 6.93v.93a7.013 7.013 0 0 1 -6-6.93zm-17-18c0-2.06 2-3.94 3-4.75 1 .81 3 2.69 3 4.75 0 2.71-1.37 5-3 5s-3-2.29-3-5zm-11 17.07v.93a7.013 7.013 0 0 1 -6 6.93v-.93a7.013 7.013 0 0 1 6-6.93zm-10-9.07c0-2.06 2-3.94 3-4.75 1 .81 3 2.69 3 4.75 0 2.71-1.37 5-3 5s-3-2.29-3-5zm-4 10v-.93a7.013 7.013 0 0 1 6 6.93v.93a7.013 7.013 0 0 1 -6-6.93zm56 9v6h-56v-6zm-6-2.07v-.93a7.013 7.013 0 0 1 6-6.93v.93a7.013 7.013 0 0 1 -6 6.93z"/><path d="m6 56h2v2h-2z"/><path d="m56 56h2v2h-2z"/><path d="m61 2h-58a1 1 0 0 0 -1 1v4a1 1 0 0 0 1 1h58a1 1 0 0 0 1-1v-4a1 1 0 0 0 -1-1zm-1 4h-56v-2h56z"/><path d="m31 16h2v2h-2z"/><path d="m31 10h2v4h-2z"/><path d="m27 16h2v2h-2z"/><path d="m27 10h2v4h-2z"/><path d="m23 16h2v2h-2z"/><path d="m23 10h2v4h-2z"/><path d="m19 16h2v2h-2z"/><path d="m19 10h2v4h-2z"/><path d="m15 16h2v2h-2z"/><path d="m15 10h2v4h-2z"/><path d="m11 16h2v2h-2z"/><path d="m11 10h2v4h-2z"/><path d="m7 16h2v2h-2z"/><path d="m7 10h2v4h-2z"/><path d="m3 16h2v2h-2z"/><path d="m3 10h2v4h-2z"/><path d="m35 16h2v2h-2z"/><path d="m35 10h2v4h-2z"/><path d="m39 16h2v2h-2z"/><path d="m39 10h2v4h-2z"/><path d="m43 16h2v2h-2z"/><path d="m43 10h2v4h-2z"/><path d="m47 16h2v2h-2z"/><path d="m47 10h2v4h-2z"/><path d="m51 16h2v2h-2z"/><path d="m51 10h2v4h-2z"/><path d="m55 16h2v2h-2z"/><path d="m55 10h2v4h-2z"/><path d="m59 16h2v2h-2z"/><path d="m59 10h2v4h-2z"/></g></svg>