<svg id="Capa_1" enable-background="new 0 0 512 512" height="512" viewBox="0 0 512 512" width="512" xmlns="http://www.w3.org/2000/svg"><g><path d="m90 389c-5.522 0-10 4.477-10 10v26.972l-21.68-32.519c-2.444-3.667-7.002-5.301-11.218-4.024-4.217 1.277-7.102 5.164-7.102 9.571v60c0 5.523 4.478 10 10 10s10-4.477 10-10v-26.972l21.68 32.519c1.89 2.834 5.04 4.454 8.321 4.454 5.519-.003 9.999-4.48 9.999-10.001v-60c0-5.523-4.478-10-10-10z"/><path d="m256 389h-20c-5.522 0-10 4.477-10 10v60c0 5.523 4.478 10 10 10s10-4.477 10-10v-10h10c16.542 0 30-13.458 30-30s-13.458-30-30-30zm0 40h-10v-20h10c5.514 0 10 4.486 10 10s-4.486 10-10 10z"/><path d="m470 393c-3.313-4.418-9.582-5.314-14-2l-24 18v-10c0-5.523-4.478-10-10-10s-10 4.477-10 10v60c0 5.523 4.478 10 10 10s10-4.477 10-10v-10l24 18c4.392 3.294 10.666 2.445 14-2 3.313-4.418 2.418-10.687-2-14l-29.333-22 29.333-22c4.418-3.313 5.313-9.582 2-14z"/><path d="m280.355 100h15.645c30.053 0 58.209-15.186 74.841-40h82.879c4.128 11.639 15.243 20 28.28 20 16.542 0 30-13.458 30-30s-13.458-30-30-30c-13.036 0-24.152 8.361-28.28 20h-72.869c3.385-9.592 5.149-19.743 5.149-30 0-5.523-4.478-10-10-10h-20c-48.257 0-87.761 38.179-89.903 85.917-10.387 11.514-17.015 25.61-19.251 40.785l-.989-.989c-2.225-36.608-32.7-65.713-69.857-65.713h-20c-5.522 0-10 4.477-10 10 0 10.476 2.35 20.7 6.762 30h-94.482c-4.128-11.639-15.244-20-28.28-20-16.542 0-30 13.458-30 30s13.458 30 30 30c13.036 0 24.152-8.361 28.28-20h108.75c13.034 12.757 30.629 20 48.97 20h15.858c2.413 3.167 14.142 10.407 14.142 26.57v79.43h-36c-30.065 0-58.226 15.187-74.845 40h-25.155c-35.203 0-64.406 26.124-69.274 60h-10.726c-16.542 0-30 13.458-30 30v106c0 16.542 13.458 30 30 30h80c16.542 0 30-13.458 30-30v-13h46v13c0 16.542 13.458 30 30 30h80c16.542 0 30-13.458 30-30v-13h46v13c0 16.542 13.458 30 30 30h80c16.542 0 30-13.458 30-30v-8c0-5.523-4.478-10-10-10s-10 4.477-10 10v8c0 5.514-4.486 10-10 10h-80c-5.514 0-10-4.486-10-10v-106c0-5.514 4.486-10 10-10h80c5.514 0 10 4.486 10 10v8c0 5.523 4.478 10 10 10s10-4.477 10-10v-8c0-16.542-13.458-30-30-30h-10.726c-4.869-33.876-34.072-60-69.274-60h-31.155c-16.619-24.813-44.779-40-74.845-40h-30v-19.43c0-16.251 11.754-23.436 14.142-26.57h15.858c18.342 0 35.936-7.243 48.97-20h68.75c4.128 11.639 15.243 20 28.28 20 16.542 0 30-13.458 30-30s-13.458-30-30-30c-13.036 0-24.152 8.361-28.28 20h-54.482c4.412-9.3 6.762-19.524 6.762-30 0-5.523-4.478-10-10-10h-20c-37.157 0-67.632 29.105-69.856 65.714l-.144.143c0-23.275 0-11.023 0-47.578 0-14.225 5.078-27.665 14.355-38.279zm201.645-60c5.514 0 10 4.486 10 10s-4.486 10-10 10-10-4.486-10-10 4.486-10 10-10zm-126-20.01h9.284c-5.027 34.926-35.112 60.01-69.284 60.01h-9.288c4.867-33.878 34.085-60.01 69.288-60.01zm-326 100.01c-5.514 0-10-4.486-10-10s4.486-10 10-10 10 4.486 10 10-4.486 10-10 10zm186 0c-23.595 0-44.228-16.608-48.993-40h8.993c24.146 0 44.35 17.206 48.995 40zm-96 362c0 5.514-4.486 10-10 10h-80c-5.514 0-10-4.486-10-10v-106c0-5.514 4.486-10 10-10h80c5.514 0 10 4.486 10 10zm66-33h-46v-20h46zm120 33c0 5.514-4.486 10-10 10h-80c-5.514 0-10-4.486-10-10v-106c0-5.514 4.486-10 10-10h80c5.514 0 10 4.486 10 10zm66-33h-46v-20h46zm-76-183c18.477 0 36.025 7.382 48.958 20h-48.958c-5.522 0-10 4.477-10 10s4.478 10 10 10h106c24.146 0 44.348 17.205 48.994 40h-48.994c-16.542 0-30 13.458-30 30v33h-46v-33c0-16.542-13.458-30-30-30h-80c-16.542 0-30 13.458-30 30v33h-46v-33c0-16.542-13.458-30-30-30h-48.994c4.646-22.795 24.847-40 48.994-40h126c5.522 0 10-4.477 10-10s-4.478-10-10-10h-74.958c12.932-12.618 30.481-20 48.958-20zm146-106c5.514 0 10 4.486 10 10s-4.486 10-10 10-10-4.486-10-10 4.486-10 10-10zm-106-20.01h8.993c-4.783 23.477-25.479 40.01-48.993 40.01h-8.995c4.645-22.794 24.849-40.01 48.995-40.01z"/><circle cx="502" cy="429" r="10"/></g></svg>