<svg xmlns="http://www.w3.org/2000/svg" height="512pt" version="1.1" viewBox="-20 0 512 512" width="512pt">
<g id="surface1">
<path d="M 59.078125 196.921875 L 59.078125 354.460938 C 59.078125 362.617188 65.691406 369.230469 73.847656 369.230469 L 236.308594 369.230469 C 244.464844 369.230469 251.078125 362.617188 251.078125 354.460938 L 251.078125 196.921875 C 251.078125 188.765625 244.464844 182.152344 236.308594 182.152344 L 73.847656 182.152344 C 65.691406 182.152344 59.078125 188.765625 59.078125 196.921875 Z M 88.617188 211.691406 L 221.539062 211.691406 L 221.539062 339.691406 L 88.617188 339.691406 Z M 88.617188 211.691406 " style=" stroke:none;fill-rule:nonzero;fill:rgb(0%,0%,0%);fill-opacity:1;" />
<path d="M 118.152344 408.617188 L 78.769531 408.617188 C 70.613281 408.617188 64 415.226562 64 423.382812 C 64 431.542969 70.613281 438.152344 78.769531 438.152344 L 118.152344 438.152344 C 126.308594 438.152344 132.921875 431.542969 132.921875 423.382812 C 132.921875 415.226562 126.308594 408.617188 118.152344 408.617188 Z M 118.152344 408.617188 " style=" stroke:none;fill-rule:nonzero;fill:rgb(0%,0%,0%);fill-opacity:1;" />
<path d="M 236.308594 408.617188 L 196.921875 408.617188 C 188.765625 408.617188 182.152344 415.226562 182.152344 423.382812 C 182.152344 431.542969 188.765625 438.152344 196.921875 438.152344 L 236.308594 438.152344 C 244.464844 438.152344 251.078125 431.542969 251.078125 423.382812 C 251.078125 415.226562 244.464844 408.617188 236.308594 408.617188 Z M 236.308594 408.617188 " style=" stroke:none;fill-rule:nonzero;fill:rgb(0%,0%,0%);fill-opacity:1;" />
<path d="M 428.308594 123.078125 L 420.921875 123.078125 L 420.921875 73.847656 C 420.921875 33.128906 387.796875 0 347.078125 0 L 214.152344 0 C 173.433594 0 140.308594 33.128906 140.308594 73.847656 L 140.308594 123.078125 L 44.308594 123.078125 C 19.875 123.078125 0 142.953125 0 167.382812 L 0 462.769531 C 0 487.199219 19.875 507.078125 44.308594 507.078125 L 265.847656 507.078125 C 290.277344 507.078125 310.152344 487.199219 310.152344 462.769531 L 310.152344 167.382812 C 310.152344 142.953125 290.277344 123.078125 265.847656 123.078125 L 169.847656 123.078125 L 169.847656 73.847656 C 169.847656 49.414062 189.722656 29.539062 214.152344 29.539062 L 347.078125 29.539062 C 371.507812 29.539062 391.382812 49.414062 391.382812 73.847656 L 391.382812 123.078125 L 384 123.078125 C 359.570312 123.078125 339.691406 142.953125 339.691406 167.382812 L 339.691406 295.382812 C 339.691406 297.679688 340.226562 299.9375 341.25 301.988281 L 361.847656 343.179688 L 361.847656 433.230469 C 361.847656 434.347656 361.972656 435.464844 362.222656 436.550781 L 376.992188 500.550781 C 378.539062 507.253906 384.507812 512 391.382812 512 L 420.921875 512 C 427.800781 512 433.765625 507.253906 435.3125 500.550781 L 450.082031 436.550781 C 450.335938 435.464844 450.460938 434.347656 450.460938 433.230469 L 450.460938 343.179688 L 471.054688 301.988281 C 472.082031 299.9375 472.617188 297.679688 472.617188 295.382812 L 472.617188 167.382812 C 472.617188 142.953125 452.738281 123.078125 428.308594 123.078125 Z M 280.617188 167.382812 L 280.617188 462.769531 C 280.617188 470.914062 273.988281 477.539062 265.847656 477.539062 L 44.308594 477.539062 C 36.164062 477.539062 29.539062 470.914062 29.539062 462.769531 L 29.539062 167.382812 C 29.539062 159.242188 36.164062 152.617188 44.308594 152.617188 L 265.847656 152.617188 C 273.988281 152.617188 280.617188 159.242188 280.617188 167.382812 Z M 384 152.617188 L 428.308594 152.617188 C 436.453125 152.617188 443.078125 159.242188 443.078125 167.382812 L 443.078125 182.152344 L 369.230469 182.152344 L 369.230469 167.382812 C 369.230469 159.242188 375.855469 152.617188 384 152.617188 Z M 443.078125 241.230469 L 369.230469 241.230469 L 369.230469 211.691406 L 443.078125 211.691406 Z M 422.484375 333.085938 C 421.457031 335.136719 420.921875 337.398438 420.921875 339.691406 L 420.921875 431.550781 L 409.171875 482.460938 L 403.132812 482.460938 L 391.382812 431.550781 L 391.382812 339.691406 C 391.382812 337.398438 390.851562 335.136719 389.824219 333.085938 L 369.230469 291.898438 L 369.230469 270.769531 L 443.078125 270.769531 L 443.078125 291.898438 Z M 422.484375 333.085938 " style=" stroke:none;fill-rule:nonzero;fill:rgb(0%,0%,0%);fill-opacity:1;" />
</g>
</svg>